HIERARCHY
ROOT Joint1
{
	OFFSET 0.000000 0.000000 0.000000
	CHANNELS 6 Xposition Yposition Zposition Xrotation Yrotation Zrotation
	JOINT Joint2
	{
		OFFSET -0.000000 0.000000 1.456275
		CHANNELS 6 Xposition Yposition Zposition Xrotation Yrotation Zrotation
		JOINT Joint3
		{
			OFFSET -0.000000 0.000002 1.471446
			CHANNELS 6 Xposition Yposition Zposition Xrotation Yrotation Zrotation
			JOINT Joint4
			{
				OFFSET 0.625745 0.000000 0.917755
				CHANNELS 6 Xposition Yposition Zposition Xrotation Yrotation Zrotation
				JOINT Joint5
				{
					OFFSET -0.629534 0.000001 0.940221
					CHANNELS 6 Xposition Yposition Zposition Xrotation Yrotation Zrotation
					JOINT Joint6
					{
						OFFSET -0.000001 0.113772 1.960660
						CHANNELS 6 Xposition Yposition Zposition Xrotation Yrotation Zrotation
						JOINT Joint7
						{
							OFFSET -0.669733 -0.113771 0.388340
							CHANNELS 6 Xposition Yposition Zposition Xrotation Yrotation Zrotation
							End Site
							{
								OFFSET 0.005509 0.005509 0.438980
							}
						}
					}
				}
			}
		}
	}
}
MOTION
Frames: 9
Frame Time: 0.041667
0.000000 0.000000 0.000000 -0.000000 1.019410 33.302107 -0.000000 0.000000 1.456275 0.000001 37.394814 -0.000000 -0.000000 0.000002 1.471446 -0.000005 -1.133464 -30.054786 0.625745 0.000001 0.917756 -0.000002 51.166016 0.000000 -0.629534 0.000001 0.940221 0.000000 1.709736 -65.840025 -0.000001 0.113772 1.960660 -88.303882 -165.521944 0.000000 -0.669733 -0.113771 0.388340 0.311807 2.533029 44.051872 
0.000000 0.000000 0.000000 -0.000000 1.019410 33.284509 -0.000000 0.000000 1.456275 0.000001 37.351292 0.000001 -0.000000 0.000002 1.471446 -0.000001 -1.133460 -30.038919 0.625744 0.000000 0.917755 0.000000 51.210320 0.000001 -0.629534 0.000001 0.940221 0.000001 1.709736 -65.805253 -0.000001 0.113772 1.960659 -88.303882 -165.577159 0.000000 -0.669733 -0.113771 0.388339 0.311821 2.533882 44.099871 
0.000000 0.000000 0.000000 -0.000000 1.019410 33.254009 -0.000000 0.000000 1.456275 0.000000 37.275846 0.000003 -0.000000 0.000002 1.471446 -0.000002 -1.133462 -30.011407 0.625744 0.000000 0.917755 0.000000 51.287125 0.000003 -0.629534 0.000001 0.940221 0.000001 1.709736 -65.744963 -0.000001 0.113772 1.960660 -88.303882 -165.672891 0.000001 -0.669733 -0.113771 0.388340 0.311843 2.535358 44.183087 
0.000000 0.000000 0.000000 -0.000000 1.019410 33.209630 -0.000000 0.000000 1.456275 -0.000001 37.166078 -0.000000 -0.000000 0.000002 1.471446 -0.000000 -1.133465 -29.971403 0.625745 0.000000 0.917755 -0.000001 51.398867 0.000004 -0.629534 0.000001 0.940221 -0.000000 1.709736 -65.657256 -0.000001 0.113772 1.960660 -88.303882 -165.812145 0.000000 -0.669733 -0.113771 0.388340 0.311871 2.537506 44.304148 
0.000000 0.000000 0.000000 -0.000000 1.019410 33.150405 -0.000000 -0.000000 1.456275 0.000002 37.019608 -0.000001 -0.000001 0.000002 1.471446 -0.000000 -1.133464 -29.918011 0.625745 0.000000 0.917755 -0.000002 51.547970 0.000003 -0.629534 0.000001 0.940221 0.000001 1.709736 -65.540221 -0.000001 0.113772 1.960661 -88.303882 -165.997967 0.000001 -0.669733 -0.113771 0.388340 0.311903 2.540374 44.465696 
0.000000 0.000000 0.000000 -0.000000 1.019410 33.075382 -0.000000 -0.000000 1.456275 -0.000002 36.834042 -0.000000 -0.000000 0.000002 1.471446 -0.000002 -1.133462 -29.850368 0.625745 0.000000 0.917756 0.000001 51.736873 0.000002 -0.629533 0.000001 0.940221 -0.000000 1.709736 -65.391944 -0.000001 0.113772 1.960661 -88.303882 -166.233390 -0.000001 -0.669733 -0.113772 0.388340 0.311930 2.544005 44.670359 
0.000000 0.000000 0.000000 -0.000000 1.019410 32.983595 -0.000000 -0.000000 1.456275 0.000003 36.607007 0.000000 -0.000000 0.000002 1.471446 -0.000003 -1.133460 -29.767610 0.625744 0.000000 0.917755 -0.000000 51.967993 0.000001 -0.629534 0.000001 0.940221 0.000000 1.709736 -65.210534 -0.000001 0.113772 1.960660 -88.303882 -166.521433 0.000002 -0.669733 -0.113771 0.388340 0.311946 2.548450 44.920774 
0.000000 0.000000 0.000000 -0.000000 1.019410 32.874066 -0.000000 0.000000 1.456275 0.000000 36.336098 0.000002 -0.000000 0.000002 1.471446 0.000001 -1.133465 -29.668863 0.625745 0.000000 0.917755 -0.000000 52.243769 0.000002 -0.629534 0.000001 0.940221 -0.000000 1.709736 -64.994072 -0.000001 0.113772 1.960660 -88.303882 -166.865128 0.000000 -0.669733 -0.113771 0.388340 0.311939 2.553752 45.219565 
0.000000 0.000000 0.000000 -0.000000 1.019410 32.745839 -0.000000 0.000000 1.456275 0.000000 36.018938 0.000002 -0.000000 0.000002 1.471446 -0.000001 -1.133463 -29.553252 0.625745 0.000000 0.917755 0.000001 52.566628 0.000002 -0.629534 0.000001 0.940221 0.000001 1.709735 -64.740652 -0.000001 0.113772 1.960660 -88.303882 -167.267508 -0.000000 -0.669733 -0.113771 0.388340 0.311896 2.559960 45.569376 
